<?xml version="1.0" encoding="utf-8"?>
<!-- Generator: Adobe Illustrator 24.2.1, SVG Export Plug-In . SVG Version: 6.00 Build 0)  -->
<svg version="1.1" id="Layer_1" xmlns="http://www.w3.org/2000/svg" xmlns:xlink="http://www.w3.org/1999/xlink" x="0px" y="0px"
	 viewBox="0 0 234.8911 254.1069" enable-background="new 0 0 234.8911 254.1069" xml:space="preserve">
<g>
	<path d="M138.5499,241.6942c6.894-1.5225,7.7305-8.4697,8.4688-14.5991c0.8054-6.6866,1.5213-12.4665,8.4614-12.7276v33.7667
		h50.6666v-41.9167H155.48v6.1512c-8.7133,0.2758-9.6425,7.8097-10.4467,14.4872c-0.7231,6.0005-1.4058,11.6685-6.915,12.8853
		c-1.2679,0.28-2.6037,0.5417-3.9724,0.7934c0.1974,0.6498,0.347,1.3035,0.4337,1.9572
		C135.9493,242.2392,137.2796,241.9747,138.5499,241.6942z M161.6466,244.1758h-2.5v-2.5h2.5V244.1758z M161.6466,239.4258h-2.5
		v-2.5h2.5V239.4258z M161.6466,234.6758h-2.5v-2.5h2.5V234.6758z M161.6466,229.9258h-2.5v-2.5h2.5V229.9258z M161.6466,225.1758
		h-2.5v-2.5h2.5V225.1758z M166.7508,244.1758h-2.5v-2.5h2.5V244.1758z M166.7508,239.4258h-2.5v-2.5h2.5V239.4258z
		 M166.7508,234.6758h-2.5v-2.5h2.5V234.6758z M166.7508,229.9258h-2.5v-2.5h2.5V229.9258z M176.9591,244.1758h-2.5v-2.5h2.5
		V244.1758z M176.9591,239.4258h-2.5v-2.5h2.5V239.4258z M176.9591,234.6758h-2.5v-2.5h2.5V234.6758z M176.9591,229.9258h-2.5v-2.5
		h2.5V229.9258z M199.98,222.6758h2.5v2.5h-2.5V222.6758z M199.98,227.4258h2.5v2.5h-2.5V227.4258z M199.98,232.1758h2.5v2.5h-2.5
		V232.1758z M199.98,236.9258h2.5v2.5h-2.5V236.9258z M199.98,241.6758h2.5v2.5h-2.5V241.6758z M194.8758,222.6758h2.5v2.5h-2.5
		V222.6758z M194.8758,227.4258h2.5v2.5h-2.5V227.4258z M194.8758,232.1758h2.5v2.5h-2.5V232.1758z M194.8758,236.9258h2.5v2.5h-2.5
		V236.9258z M194.8758,241.6758h2.5v2.5h-2.5V241.6758z M189.7716,222.6758h2.5v2.5h-2.5V222.6758z M189.7716,227.4258h2.5v2.5h-2.5
		V227.4258z M189.7716,232.1758h2.5v2.5h-2.5V232.1758z M189.7716,236.9258h2.5v2.5h-2.5V236.9258z M189.7716,241.6758h2.5v2.5h-2.5
		V241.6758z M184.6675,222.6758h2.5v2.5h-2.5V222.6758z M184.6675,227.4258h2.5v2.5h-2.5V227.4258z M184.6675,232.1758h2.5v2.5h-2.5
		V232.1758z M184.6675,236.9258h2.5v2.5h-2.5V236.9258z M184.6675,241.6758h2.5v2.5h-2.5V241.6758z M179.5633,222.6758h2.5v2.5h-2.5
		V222.6758z M179.5633,227.4258h2.5v2.5h-2.5V227.4258z M179.5633,232.1758h2.5v2.5h-2.5V232.1758z M179.5633,236.9258h2.5v2.5h-2.5
		V236.9258z M179.5633,241.6758h2.5v2.5h-2.5V241.6758z M176.9591,225.1758h-2.5v-2.5h2.5V225.1758z M172.6258,210.2679v2.7829h1
		v-2.7829c1.8323,0.2467,3.25,1.7998,3.25,3.6996c0,2.071-1.679,3.75-3.75,3.75s-3.75-1.679-3.75-3.75
		C169.3758,212.0677,170.7935,210.5146,172.6258,210.2679z M169.355,222.6758h2.5v2.5h-2.5V222.6758z M169.355,227.4258h2.5v2.5
		h-2.5V227.4258z M169.355,232.1758h2.5v2.5h-2.5V232.1758z M169.355,236.9258h2.5v2.5h-2.5V236.9258z M169.355,241.6758h2.5v2.5
		h-2.5V241.6758z M166.7508,225.1758h-2.5v-2.5h2.5V225.1758z M162.3133,210.2679v2.7829h1v-2.7829
		c1.8323,0.2467,3.25,1.7998,3.25,3.6996c0,2.071-1.679,3.75-3.75,3.75s-3.75-1.679-3.75-3.75
		C159.0633,212.0677,160.481,210.5146,162.3133,210.2679z"/>
	<path d="M4.5265,150.0433c0.6794-1.8777,3.7164-4.0148,13.7917-4.2419c0.1756-0.6565,0.2706-1.3335,0.3028-2.0138
		c-9.5466,0.1492-14.6639,1.948-15.9753,5.5755c-1.0293,2.8466,0.5618,6.446,3.9384,10.6224l1.3527-1.4624
		C5.1446,155.0623,3.7683,152.1404,4.5265,150.0433z"/>
	<path d="M38.0924,185.0985c-6.8099-5.4065-13.7042-10.8823-19.4764-15.9467l-2.1211,0.8141
		c5.7886,5.1348,12.8795,10.7647,20.3543,16.699c5.3392,4.239,10.8799,8.639,16.0328,12.9708l-2.533-4.7117
		C46.4178,191.71,42.2801,188.4233,38.0924,185.0985z"/>
	<path d="M88.0362,243.5013c-19.1968-0.5586-28.3862-3.061-28.7808-4.6597c-0.0034-0.0146,0.0229-1.5723,8.5918-3.9092
		c5.3325-1.4546,8.3848-3.8887,9.0713-7.2354c0.7094-3.4567-1.1427-7.5729-4.7232-12.159l-1.2714,1.6693
		c3.0015,3.9111,4.5934,7.369,4.0356,10.0878c-0.5229,2.5474-3.0928,4.4678-7.6387,5.7075
		c-7.4941,2.0439-10.5806,3.9927-10.0073,6.3179c1.1855,4.8066,21.8394,5.9229,30.6646,6.1797
		c2.5684,0.0752,5.144,0.1118,7.7144,0.1118c4.7615,0,9.4943-0.1287,14.0981-0.3732l-0.6648-1.9688
		C102.265,243.619,95.1197,243.707,88.0362,243.5013z"/>
	<path d="M74.4547,57.5065c-5.0264-4.2657-12.6946-6.5353-24.8391-0.264c-14.9017,7.6953-19.773,3.7772-21.5786-0.3911
		c-1.8055-4.1683-4.7227,9.5764,9.8116,14.2444c11.5116,3.6971,23.8388-8.1466,31.9396-5.0662
		c0.8513-2.8124,2.2341-5.513,4.1788-7.9443C74.1256,57.8872,74.2912,57.6982,74.4547,57.5065z"/>
	<path d="M107.284,99.4385c0,0-1.5837-2.0342-4.9847-4.785c-7.8823,3.5243-17.419,2.6381-24.613-3.1163
		c-3.5797-2.8633-6.1087-6.5587-7.54-10.5908c-9.0076-1.7748-12.8376-1.0292-13.9879-0.6684
		c-0.6614,0.1713-1.3073,0.4454-1.9116,0.8382L27.199,98.6763c-2.5049,1.626-3.5791,4.7495-2.6055,7.5723l12.8809,37.3208
		c0.9287,2.6914,3.4482,4.3813,6.1445,4.3813c0.7031,0,1.4189-0.1152,2.1211-0.3574c3.3926-1.1714,5.1943-4.8716,4.0234-8.2651
		L38.5408,106.812l15.0052-9.7421c-1.3405,8.5967-3.2278,18.4647-5.493,24.232c-0.3742,0.9525-0.7722,1.8011-1.1896,2.5743
		l1.7797,5.1566l20.837,7.9974h12.7042c1.5676-4.0336,3.213-7.6931,4.8844-11.0005c0.0315-0.0024,0.0623-0.0006,0.0938-0.0033
		c0.99-0.0851,1.9362-0.298,2.8389-0.5993c3.0145-1.0063,5.4741-3.1296,6.9312-5.8521l1.6173,19.7545h-6.8479H69.0542
		l-19.4313-7.4577l2.3144,6.7057c0.1085,0.3142,0.194,0.6306,0.2653,0.9476h3.7071v1.4224H52.397
		c0.0319,0.5632,0.0084,1.1218-0.0663,1.6713h3.5789v1.4224h-3.8948c-0.1802,0.581-0.4193,1.1403-0.7136,1.6713h4.6085v1.4224H50.32
		c-0.987,1.1674-2.2822,2.0982-3.829,2.6321c-0.9307,0.3213-1.8965,0.4834-2.8721,0.4834c-2.6323,0-5.0455-1.1902-6.6844-3.1155
		h-5.6593v-1.4224h4.6566c-0.2451-0.4421-0.4623-0.9036-0.6312-1.3932l-0.0959-0.2781h-3.9294v-1.4224h3.4385l-0.5768-1.6713
		h-2.8617v-1.4224h2.3707l-5.4844-15.8901l-23.2128-8.909c-5.3589-2.0566-6.5542-0.292-2.6567,3.9219l15.7441,17.021
		c3.8975,4.2136,3.8975,11.1089,0,15.3225L2.292,168.0122c-3.8975,4.2139-2.7021,5.9785,2.6567,3.9219l64.1055-24.6035h63.8723
		l2.6885-5.8442c0.367-0.7972,0.8489-1.5193,1.4161-2.1567h-4.1334h-9.747l-11.908-4.2863l-2.6313-32.1411
		c-0.0393-0.4797-0.1333-0.9411-0.269-1.3829c-0.234-0.7616-0.6022-1.4589-1.076-2.0682
		C107.2698,99.4487,107.284,99.4385,107.284,99.4385z"/>
	<ellipse transform="matrix(0.3031 -0.953 0.953 0.3031 -5.0212 139.037)" cx="92.5525" cy="72.9517" rx="21.5" ry="21.5"/>
	<path d="M55.8172,200.2373l-28.4648,37.3726c-3.3467,4.3936-2.498,10.668,1.8955,14.0142
		c1.8105,1.3789,3.9395,2.0454,6.0518,2.0454c3.0146,0,5.9951-1.3579,7.9629-3.9414l32.3672-42.4951
		c2.376-3.1196,2.71-7.3403,0.8525-10.7944l-12.9078-24.0089l31.7134,22.6714l17.627,52.2021
		c1.4092,4.1719,5.3018,6.8037,9.4736,6.8037c1.0605,0,2.1396-0.1704,3.2002-0.5283c5.2324-1.7671,8.042-7.4414,6.2754-12.6738
		l-18.6602-55.2607c-0.6719-1.9883-1.9512-3.7153-3.6592-4.936l-33.4523-23.9142c0.5862-2.4836,1.2121-4.8668,1.8675-7.1639H69.48
		l-33.9196,13.0186c0.0797,0.123,0.1634,0.2435,0.245,0.3655L55.8172,200.2373z"/>
	<polygon points="115.3764,51.7975 146.7232,17.5538 144.1232,13.8223 114.0874,50.1099 	"/>
	<polygon points="119.5724,59.6452 164.1153,46.5577 163.8205,42.0178 119.3422,57.5343 	"/>
	<polygon points="120.3458,2.155 116.3383,0 105.9442,45.9454 107.8552,46.8679 	"/>
	<path d="M152.1298,147.3306h8.714l15.8237,7.5781l8.5908,4.8733l-1.5771-6.6555l-1.0127-0.9043l0.8906-0.9973l0.9609,0.8582
		l0.7383-0.8271l-2.7388-2.4458l-0.7383,0.8271l0.9609,0.8579l-0.8911,0.9976l-2.3955-2.1396l0.8906-0.9973l0.9609,0.8582
		l0.7383-0.8271l-2.7388-2.4458l-0.7383,0.8269l0.9604,0.8582l-0.8906,0.9973l-2.3955-2.1396l0.8906-0.9973l0.9609,0.8582
		l0.7383-0.8269l-2.7388-2.446l-0.7388,0.8271l0.9609,0.8582l-0.8906,0.9973l-2.3955-2.1396l0.8906-0.9973l0.9609,0.8579
		l0.7383-0.8269l-2.7388-2.4458l-0.7388,0.8269l0.9609,0.8582l-0.8906,0.9973l-2.3955-2.1396l0.8906-0.9973l0.9609,0.8582
		l0.7383-0.8271l-2.7388-2.4458l-0.7388,0.8271l0.9609,0.8582l-0.8906,0.9973l-2.396-2.1396l0.8911-0.9973l0.9604,0.8582
		l0.7388-0.8271l-2.7388-2.4458l-0.7388,0.8271l0.9609,0.8579l-0.8906,0.9973l-0.9819-0.877l-3.4409,3.0603h-11.1763
		C152.0885,141.4789,152.856,144.4762,152.1298,147.3306z"/>
	<path d="M209.5332,184.1682c1.4412-0.8154,2.2631-2.2144,2.1574-3.4549v-11.4793l13.3085-3.66v7.2425
		c-0.9701-0.3245-2.2109-0.1968-3.34,0.4421c-1.8246,1.0322-2.6633,3.0012-1.8732,4.3978c0.7902,1.3967,2.9098,1.692,4.7344,0.6599
		c1.3207-0.7472,2.1207-1.9847,2.1646-3.1411h0.0013v-0.0291c0.0015-0.0543,0.002-0.1083,0-0.1622v-17.0361l-16.6826,4.588v16.1306
		c-0.969-0.321-2.2056-0.1929-3.3317,0.4442c-1.8246,1.0322-2.6633,3.0012-1.8732,4.3978S207.7086,185.2003,209.5332,184.1682z
		 M211.6906,163.8214l13.3085-3.6599v3.6629l-13.3085,3.66V163.8214z"/>
	<path d="M220.7279,202.786c-1.9844,0.676-3.1737,2.4553-2.6563,3.9742c0.5174,1.5189,2.5457,2.2023,4.53,1.5264
		c1.5673-0.534,2.6345-1.7563,2.7607-2.9949l2.7544-14.5947l5.7186,2.2217l0.6108-1.5725l-0.0388-0.0151l0.4836-1.0332
		l-7.7332-3.6177l-3.0738,16.2873C223.1915,202.4724,221.9526,202.3689,220.7279,202.786z"/>
	<path d="M191.3069,186.7141c-1.0208-0.0084-2.1585,0.4926-3.035,1.4442c-1.4202,1.542-1.6148,3.6733-0.4345,4.7604
		c1.1802,1.0872,3.2885,0.7183,4.7087-0.8235c1.1218-1.218,1.4752-2.8016,0.9942-3.95l-4.5539-14.1371l6.0852-0.7807l-0.2147-1.6733
		l-0.0413,0.0053l-0.0688-1.1387l-8.5219,0.5169L191.3069,186.7141z"/>
	<rect x="194.6675" y="202.6342" width="7.3333" height="2"/>
	<rect x="184.9175" y="202.6342" width="7.3333" height="2"/>
	<path d="M149.5154,147.8813c1.5-3.2612,0.0723-7.1216-3.1885-8.6221c-3.2607-1.5-7.1211-0.0728-8.6221,3.1885l-3.3043,7.1821
		h-21.0178l24.6959,8.889c0.0176,0.0063,0.0355,0.0079,0.0532,0.0141c0.3171,0.1115,0.6377,0.1943,0.9601,0.2545
		c0.0684,0.0128,0.1364,0.0224,0.2048,0.033c0.3209,0.0492,0.6422,0.0821,0.962,0.0829c0.0068,0,0.0137,0.0018,0.0206,0.0018
		c0.0604,0,0.1191-0.0121,0.1793-0.0138c0.2567-0.0073,0.5125-0.0217,0.7649-0.0589c0.1267-0.0187,0.2488-0.0541,0.3738-0.0803
		c0.1859-0.0388,0.372-0.0745,0.5534-0.1292c0.1279-0.0386,0.2499-0.0911,0.375-0.1373c0.1726-0.0637,0.345-0.126,0.5117-0.2042
		c0.1207-0.0566,0.2349-0.1241,0.3519-0.188c0.1616-0.0881,0.3221-0.1768,0.4761-0.2786c0.1123-0.0743,0.218-0.1569,0.3257-0.2382
		c0.1459-0.11,0.2893-0.222,0.4261-0.3447c0.1039-0.0932,0.2014-0.1926,0.2996-0.2928c0.1253-0.128,0.2467-0.2588,0.3619-0.3981
		c0.0939-0.1134,0.1818-0.2313,0.2684-0.3517c0.1028-0.1432,0.2001-0.2903,0.2921-0.4437c0.0785-0.1308,0.1522-0.2641,0.222-0.4017
		c0.039-0.0767,0.0876-0.1454,0.124-0.2244l2.5256-5.4897L149.5154,147.8813z"/>
</g>
</svg>
